<svg version="1.2" xmlns="http://www.w3.org/2000/svg" viewBox="0 0 601 508" width="750" height="634">
	<style>
		.s0 { fill: #000000 } 
		.s1 { fill: #ffffff } 
	</style>
	<path id="J" class="s0" aria-label="J"  d="m160.1 339.1v-330q22.7 1.8 32.9 1.8h28.6q17.9 0 35.5-2.9v328.1q0 80.6-42.8 126.7-40.7 44.4-109.9 44.4-47.6 0-79.8-19.1-12.1-6.9-24.2-16.8v-105.9l2.6-0.7q15.3 24.2 35.8 39.5 20.9 15.4 51.7 15.4 69.6 0 69.6-80.5z"/>
	<path id="T" class="s1" aria-label="T"  d="m479.8 92v407.2q-17.6-2.2-90.5-2.2h-11.7v-405h-72.5q-32.2 0-38.1 3.3-5.9 3.3-9.2 5.8l-1.1-0.3v-93.8l1.1-1.1q12.1 4 65.2 4h229.6q32.3 0 38.1-3.3 5.9-3.3 9.2-5.8l1.1 0.4v93.7l-1.1 1.1q-12.1-4-65.2-4z"/>
</svg>