<svg version="1.2" xmlns="http://www.w3.org/2000/svg" viewBox="0 0 1675 273" width="1675" height="273">
	<style>
		.s0 { fill: #ffffff } 
	</style>
	<path id="Jessica Tran" class="s0" aria-label="Jessica Tran"  d="m15.7 273.6l-16-11q9.4-13 15.3-25.3 6-12.5 8.6-26.6 2.9-14.1 2.9-32.4v-178.3h24.1v181.5q0 18.3-3.6 33.4-3.4 15-11.2 29.3-7.7 14.1-20.1 29.4zm208.1-51.6h-121.1v-178.5h119.8v19.1h-96v140.3h97.3zm-13.7-81.9h-92.4v-18.9h92.4zm86.2 84.2q-11.7 0-24.3-1.8-12.5-1.8-23.3-5.3v-19.9q8.1 2.4 16.4 4 8.4 1.7 16.3 2.6 8 0.7 15 0.7 15.6 0 25.5-3.4 10.1-3.6 14.7-10.4 4.8-6.9 4.8-16.6 0-8.3-3.3-14-3.1-5.7-11-9.7-7.8-4.1-21.4-7.2l-9.4-2.1q-26.9-6-39-17.7-12-11.9-12-31.8 0-15 7.5-26.3 7.6-11.4 23.1-17.7 15.6-6.4 39.4-6.4 10.8 0 21.6 1.3 10.9 1.4 19.8 3.8v20.1q-10.1-2.9-20.4-4.2-10.2-1.5-20.7-1.5-16.5 0-26.7 3.6-10.2 3.6-15 10.2-4.6 6.6-4.6 15.9 0 12.4 7.2 19.3 7.3 6.8 27.4 11.6l9.4 2.1q18.5 4 29.9 10.5 11.4 6.4 16.6 16 5.5 9.6 5.5 22.8 0 15.8-7.8 27.3-7.9 11.4-23.3 17.9-15.3 6.3-37.9 6.3zm143 0q-11.7 0-24.3-1.8-12.5-1.8-23.3-5.3v-19.9q8.1 2.4 16.4 4.1 8.4 1.6 16.3 2.5 7.9 0.7 15 0.7 15.6 0 25.5-3.4 10.1-3.6 14.7-10.3 4.8-7 4.8-16.7 0-8.3-3.3-14-3.1-5.7-10.9-9.7-7.9-4.1-21.5-7.2l-9.4-2.1q-26.9-6-39-17.7-12-11.9-12-31.8 0-15 7.5-26.3 7.6-11.4 23-17.7 15.7-6.4 39.5-6.4 10.8 0 21.6 1.3 10.9 1.4 19.8 3.8v20.1q-10-2.9-20.4-4.2-10.2-1.5-20.7-1.5-16.5 0-26.7 3.6-10.2 3.6-15 10.2-4.6 6.6-4.6 15.9 0 12.4 7.1 19.3 7.4 6.8 27.5 11.6l9.4 2.1q18.5 4 29.9 10.5 11.4 6.4 16.6 16 5.5 9.6 5.5 22.9 0 15.7-7.9 27.2-7.7 11.4-23.2 17.9-15.3 6.3-37.9 6.3zm129.7-2.3h-24.4v-178.5h24.4zm128.3 2.3q-27 0-46.8-9-19.6-9-30.5-28.9-10.6-20.2-10.6-53.3 0-31.8 10.6-52.1 10.9-20.4 31-30 20-9.7 48.4-9.7 10.8 0 21 1.2 10.4 1.2 19.8 3.8v20.2q-9.8-2.6-19.5-3.7-9.8-1.3-19.9-1.3-21.5 0-36.2 7.1-14.7 6.9-22.2 22.7-7.5 15.6-7.5 41.5 0 26.8 7.5 42.4 7.6 15.7 22.1 22.3 14.4 6.5 34.8 6.5 10.3 0 20.1-1.5 9.9-1.6 20.8-4.9v20.3q-9.3 3-20.3 4.7-10.8 1.7-22.6 1.7zm77.2-2.3h-23.9l66.8-178.5h34.5l67 178.5h-24.5l-61.7-168h3.6zm107.4-55.6h-94.7l5.6-19.2h83.7zm215.4 55.7h-24.3v-200.9h-73.9v-21.1h172.2v21.1h-74zm108.4 0h-24v-175.3q11.2-2.1 24.3-3.6 13-1.5 27.5-1.5 38.2 0 56.7 13.2 18.8 13 18.8 40.6 0.2 18-9 30.2-9 12-26.5 18.1-17.5 6.2-42.8 6.2-6.6 0-12.9-0.2-6.1-0.3-12.1-0.9zm118.1 0h-27.7l-65.4-83.7h26.8zm-93.1-90.1q29.3 0 42.3-8.9 13-9 13-27.3 0-19.3-12.1-27.7-12-8.4-38.7-8.4-8.9 0-15.9 0.6-6.9 0.6-13.6 1.9v68.7q7 0.5 12.3 0.8 5.2 0.3 12.7 0.3zm121.8 90.1h-23.8l66.7-178.5h34.5l67.1 178.5h-24.7l-61.6-168h3.6zm107.4-55.6h-94.7l5.6-19.2h83.7zm89.4 55.6h-22.7v-178.5h24.5l105.7 150.5h-4.9v-150.5h22.8v178.5h-24.6l-105.8-150.4h5z"/>
</svg>